<?xml version="1.0" standalone="no"?>
<!DOCTYPE svg PUBLIC "-//W3C//DTD SVG 20010904//EN"
 "http://www.w3.org/TR/2001/REC-SVG-20010904/DTD/svg10.dtd">
<svg version="1.0" xmlns="http://www.w3.org/2000/svg"
 width="1280.000000pt" height="1280.000000pt" viewBox="0 0 1280.000000 1280.000000"
 preserveAspectRatio="xMidYMid meet">
<metadata>
Created by potrace 1.14, written by Peter Selinger 2001-2017
</metadata>
<g transform="translate(0.000000,1280.000000) scale(0.100000,-0.100000)"
fill="#000000" stroke="none">
<path d="M4 7863 c2 -1396 6 -2558 9 -2583 6 -48 10 -74 33 -220 13 -80 23
-129 49 -240 2 -8 14 -49 25 -90 12 -41 23 -79 24 -85 2 -5 5 -17 8 -25 3 -8
20 -55 38 -105 17 -49 34 -97 37 -105 4 -8 7 -17 8 -20 25 -70 189 -393 212
-418 7 -7 13 -17 13 -22 0 -4 33 -56 72 -115 40 -59 78 -114 83 -123 6 -10 12
-19 15 -22 3 -3 32 -39 65 -80 86 -109 107 -131 245 -270 137 -137 198 -192
329 -290 83 -63 270 -189 301 -203 8 -4 29 -16 45 -26 61 -40 332 -170 415
-200 19 -7 44 -17 55 -22 29 -12 200 -68 222 -72 10 -2 25 -7 33 -10 26 -10
160 -41 245 -57 132 -25 174 -32 215 -36 19 -2 69 -7 110 -11 102 -10 475 -10
580 0 87 8 103 10 180 22 46 7 283 53 310 60 8 2 47 13 86 23 40 11 76 22 81
25 5 3 20 8 34 11 83 17 513 200 529 226 3 5 18 12 33 15 15 4 27 12 27 18 0
6 3 8 6 4 3 -3 11 -1 18 4 20 17 137 89 144 89 4 0 19 11 34 25 15 14 31 25
35 25 4 0 28 16 52 35 24 19 47 35 50 35 4 0 20 12 38 27 69 62 95 83 104 83
5 0 9 4 9 9 0 11 -168 204 -181 209 -5 2 -9 9 -9 16 0 8 -10 24 -23 37 -35 36
-177 227 -177 238 0 5 -4 11 -8 13 -7 3 -109 151 -137 199 -5 10 -32 55 -59
101 -89 150 -167 299 -250 480 l-35 78 -58 -58 c-141 -138 -253 -216 -433
-303 -122 -58 -145 -67 -260 -99 -101 -28 -110 -30 -150 -35 -19 -2 -46 -7
-60 -10 -32 -9 -400 -14 -400 -6 0 4 -15 7 -32 8 -44 2 -108 12 -133 20 -21 7
-25 8 -65 16 -91 18 -405 154 -430 186 -3 3 -17 12 -32 20 -15 8 -37 22 -47
33 -11 10 -23 18 -27 18 -20 0 -207 176 -283 265 -51 61 -121 161 -121 174 0
6 -4 11 -8 11 -9 0 -98 173 -127 245 -32 78 -70 204 -79 260 -2 17 -5 30 -6
30 -1 0 -3 9 -5 20 -12 63 -17 122 -20 218 -2 60 -6 111 -9 114 -3 3 -1 13 4
22 5 10 5 23 1 30 -5 7 -5 29 -1 49 3 21 3 49 -1 65 -4 15 -4 27 -1 27 4 0 7
29 7 65 0 36 -3 65 -7 65 -4 0 -3 14 2 30 5 17 5 30 0 30 -5 0 -5 13 0 30 5
17 5 30 0 30 -5 0 -5 13 0 30 5 17 5 32 0 35 -5 3 -6 15 0 29 4 12 4 29 0 36
-5 8 -5 21 0 30 5 9 5 22 0 30 -5 8 -5 21 0 30 5 9 5 22 1 28 -4 7 -5 35 -1
62 4 27 3 55 -1 62 -4 6 -4 19 1 28 5 9 5 22 0 30 -4 7 -4 24 0 36 6 14 5 26
0 29 -5 3 -5 18 0 35 5 17 5 30 0 30 -5 0 -5 13 0 30 5 17 5 30 0 30 -5 0 -5
13 0 30 5 17 5 30 0 30 -5 0 -5 13 0 30 5 17 6 30 2 30 -8 0 -7 68 1 76 3 3 2
17 -3 30 -6 14 -6 26 1 29 5 4 7 11 3 16 -8 13 -9 97 -2 104 3 4 2 20 -2 36
-5 16 -6 29 -2 29 4 0 7 18 7 40 0 22 -3 40 -7 40 -4 0 -3 13 2 30 5 16 5 32
0 35 -5 3 -5 18 -1 33 7 28 6 75 -3 99 -3 7 -1 13 4 13 5 0 5 13 0 30 -5 17
-5 30 0 30 5 0 5 13 0 30 -5 17 -5 30 0 30 5 0 5 13 0 30 -5 17 -5 30 0 30 5
0 5 13 0 30 -5 17 -5 30 0 30 5 0 5 13 0 30 -5 17 -5 30 0 30 5 0 5 13 0 30
-5 17 -5 30 0 30 5 0 5 13 0 30 -5 17 -5 30 0 30 5 0 5 13 0 30 -5 19 -5 30 1
30 6 0 7 4 4 10 -8 13 -11 108 -3 115 3 4 2 20 -2 36 -5 16 -6 29 -2 29 4 0 7
18 7 40 0 22 -3 40 -7 40 -4 0 -3 13 2 30 5 18 5 32 -1 36 -5 3 -7 10 -3 15 8
13 9 107 1 115 -3 4 -2 14 3 23 5 10 5 23 0 31 -4 7 -4 24 0 36 6 14 5 26 0
29 -5 3 -5 18 0 35 5 17 5 30 0 30 -5 0 -5 13 0 30 5 17 5 30 0 30 -5 0 -5 13
0 30 5 17 5 30 0 30 -5 0 -5 13 0 30 5 17 6 30 2 30 -8 0 -7 68 1 76 3 3 2 17
-3 30 -6 14 -6 26 0 29 5 3 6 16 1 28 -4 12 -5 33 -1 47 4 14 3 37 -1 53 -4
15 -5 27 -1 27 4 0 7 29 7 65 0 36 -3 65 -7 65 -4 0 -3 14 2 30 5 17 5 30 0
30 -5 0 -5 13 0 30 5 17 5 30 0 30 -5 0 -5 13 0 30 5 17 5 32 0 35 -5 3 -6 15
0 29 4 12 4 29 0 36 -5 8 -5 21 0 30 5 9 5 22 0 30 -5 8 -5 21 0 30 5 9 5 22
1 29 -5 7 -5 29 -1 49 3 21 3 49 -1 65 -4 15 -4 27 -1 27 4 0 7 29 7 65 0 36
-3 65 -7 65 -4 0 -3 14 2 30 5 17 5 30 0 30 -5 0 -5 13 0 30 5 17 5 30 0 30
-5 0 -5 13 0 30 5 17 5 32 0 35 -5 3 -6 15 0 29 4 12 4 29 0 36 -5 8 -5 21 0
30 5 9 5 22 0 30 -5 8 -5 21 0 31 5 9 7 19 4 22 -8 8 -9 106 -1 113 3 3 1 19
-3 35 -5 16 -5 29 -1 29 5 0 6 11 3 25 l-4 25 -799 0 -800 0 5 -2537z"/>
<path d="M4797 10380 c-3 -11 -1 -22 4 -25 4 -3 4 -16 -1 -29 -5 -13 -6 -26
-4 -29 8 -8 9 -95 2 -102 -3 -4 -2 -20 2 -36 5 -16 6 -29 2 -29 -4 0 -7 -18
-7 -40 0 -22 3 -40 7 -40 4 0 3 -13 -2 -30 -5 -17 -5 -32 0 -35 5 -3 7 -12 4
-19 -9 -24 -10 -70 -3 -98 4 -16 4 -28 -1 -28 -5 0 -5 -13 0 -30 5 -17 5 -30
0 -30 -5 0 -5 -13 0 -30 5 -17 5 -30 0 -30 -5 0 -5 -13 0 -30 5 -17 5 -30 0
-30 -5 0 -5 -13 0 -30 5 -17 5 -30 0 -30 -5 0 -5 -13 0 -30 5 -17 5 -30 0 -30
-5 0 -5 -13 0 -30 5 -17 5 -30 0 -30 -5 0 -5 -13 0 -30 5 -17 5 -30 0 -30 -5
0 -5 -13 0 -30 5 -19 5 -30 -1 -30 -6 0 -7 -4 -4 -10 8 -13 11 -108 3 -115 -3
-4 -2 -20 2 -36 5 -16 6 -29 2 -29 -4 0 -7 -18 -7 -40 0 -22 3 -40 7 -40 4 0
3 -13 -2 -30 -5 -18 -5 -32 1 -36 5 -3 7 -10 3 -15 -8 -13 -9 -107 -1 -115 3
-4 2 -14 -3 -23 -5 -10 -5 -23 0 -31 4 -7 4 -24 0 -36 -6 -14 -5 -26 0 -29 5
-3 5 -18 0 -35 -5 -17 -5 -30 0 -30 5 0 5 -13 0 -30 -5 -17 -5 -30 0 -30 5 0
5 -13 0 -30 -5 -17 -5 -30 0 -30 5 0 5 -13 0 -30 -5 -16 -6 -30 -2 -30 8 0 7
-68 -1 -76 -3 -3 -2 -17 3 -30 6 -14 6 -26 -1 -29 -5 -4 -7 -11 -3 -16 8 -13
9 -97 2 -104 -3 -4 -2 -20 2 -36 5 -16 6 -29 2 -29 -4 0 -7 -18 -7 -40 0 -22
3 -40 7 -40 4 0 3 -13 -2 -30 -5 -16 -5 -32 0 -35 5 -3 5 -18 1 -33 -7 -28 -6
-75 3 -99 3 -7 1 -13 -4 -13 -5 0 -5 -13 0 -30 5 -17 5 -30 0 -30 -5 0 -5 -13
0 -30 5 -17 5 -30 0 -30 -5 0 -5 -13 0 -30 5 -17 5 -30 0 -30 -5 0 -5 -13 0
-30 5 -17 5 -30 0 -30 -5 0 -5 -13 0 -30 5 -17 5 -30 0 -30 -5 0 -5 -13 0 -30
5 -17 5 -30 0 -30 -5 0 -5 -13 0 -30 5 -17 5 -30 0 -30 -5 0 -5 -13 0 -30 5
-19 5 -30 -1 -30 -6 0 -7 -4 -4 -10 8 -13 11 -108 3 -115 -3 -4 -2 -20 2 -36
5 -16 6 -29 2 -29 -4 0 -7 -18 -7 -40 0 -22 3 -40 7 -40 4 0 3 -13 -2 -30 -5
-18 -5 -32 1 -36 5 -3 7 -10 3 -15 -8 -13 -9 -107 -1 -115 3 -4 2 -14 -3 -23
-5 -10 -5 -23 0 -31 4 -7 4 -24 0 -36 -6 -14 -5 -26 0 -29 5 -3 5 -18 0 -35
-5 -17 -5 -30 0 -30 5 0 5 -13 0 -30 -5 -17 -5 -30 0 -30 5 0 5 -13 0 -30 -5
-17 -5 -30 0 -30 5 0 5 -13 0 -30 -5 -16 -6 -30 -2 -30 8 0 7 -68 -1 -76 -3
-3 -2 -17 3 -30 6 -14 6 -26 0 -29 -5 -3 -6 -16 -2 -28 9 -25 8 -67 -1 -91 -4
-9 -3 -16 1 -16 4 0 7 -20 7 -45 0 -25 -4 -45 -8 -45 -5 0 -5 -6 -1 -12 5 -7
9 -31 10 -53 6 -100 17 -216 30 -320 4 -27 8 -63 10 -80 2 -16 5 -37 7 -45 11
-49 17 -79 21 -110 3 -19 15 -73 26 -120 12 -47 23 -94 25 -105 1 -11 15 -60
30 -110 15 -49 29 -99 32 -110 3 -11 9 -29 13 -40 5 -11 16 -40 24 -65 20 -62
63 -174 92 -238 13 -29 24 -55 24 -57 0 -3 27 -60 60 -127 55 -112 75 -152
152 -288 26 -45 130 -206 145 -225 5 -5 28 -39 52 -75 102 -151 321 -404 475
-549 27 -25 63 -59 80 -76 18 -16 59 -52 92 -79 32 -28 66 -56 74 -63 42 -38
78 -66 103 -81 15 -9 27 -20 27 -24 0 -4 7 -8 15 -8 8 0 15 -3 15 -7 0 -5 24
-24 53 -43 28 -19 54 -37 57 -40 3 -3 30 -21 60 -40 30 -19 57 -38 58 -42 2
-5 8 -8 14 -8 5 0 22 -8 36 -19 25 -18 47 -30 140 -82 20 -11 41 -25 47 -30 5
-5 17 -9 26 -9 10 0 19 -3 21 -8 4 -10 169 -92 186 -92 6 0 12 -4 12 -10 0 -5
8 -10 18 -10 10 0 22 -4 27 -9 12 -10 248 -104 295 -116 3 -1 19 -7 35 -14 17
-7 39 -15 50 -17 11 -2 47 -12 80 -23 80 -26 147 -44 165 -47 8 -1 42 -9 75
-17 33 -9 74 -19 90 -22 79 -15 203 -37 228 -40 15 -2 44 -7 65 -10 20 -3 62
-8 92 -10 30 -3 82 -9 115 -12 86 -10 543 -9 655 1 155 13 196 18 270 32 8 2
38 6 65 9 28 4 70 11 95 17 64 14 81 17 114 24 16 2 32 7 36 9 6 4 25 8 85 20
17 3 45 10 63 16 18 6 41 12 50 14 9 2 18 4 20 5 1 2 5 3 10 4 5 2 70 21 102
31 3 1 18 7 33 13 15 7 40 15 55 18 15 4 33 11 40 17 6 5 12 7 12 4 0 -3 19 2
43 12 48 21 80 34 87 36 3 0 28 11 55 24 28 12 55 24 60 25 42 9 456 230 463
248 2 4 8 8 13 8 5 0 48 26 95 57 47 32 93 63 102 68 19 13 25 17 147 110 55
43 105 83 111 91 6 8 14 14 17 14 8 0 175 150 241 216 129 130 237 252 347
395 44 57 86 111 93 120 8 9 15 20 17 25 2 5 43 68 90 139 47 72 89 137 93
145 3 8 17 33 30 55 22 37 157 305 176 350 5 11 23 52 40 90 17 39 31 71 31
72 -1 5 11 37 39 113 15 41 35 102 45 135 9 33 19 67 22 75 3 8 7 20 9 25 1 6
12 46 23 91 12 45 24 91 26 103 3 11 7 31 10 44 4 12 8 37 11 56 2 19 6 37 8
40 3 4 7 27 11 51 3 25 8 53 11 63 3 10 7 32 10 50 35 273 39 334 38 612 0
243 -9 399 -29 525 -3 25 -8 56 -10 70 -2 14 -11 66 -20 115 -29 161 -33 180
-35 180 -2 0 -6 18 -14 55 -3 14 -21 81 -41 150 -37 133 -38 134 -49 165 -5
11 -12 31 -16 45 -4 14 -12 34 -16 45 -4 11 -8 22 -8 25 -2 7 -26 68 -41 105
-7 17 -30 71 -51 120 -45 106 -170 353 -190 376 -8 9 -11 19 -7 22 3 4 2 7 -4
7 -5 0 -15 12 -22 28 -7 15 -37 64 -67 109 -30 46 -54 87 -54 93 0 5 -3 10 -7
10 -5 0 -19 17 -33 38 -50 76 -163 222 -171 222 -4 0 -10 8 -13 18 -3 9 -21
33 -38 53 -18 20 -61 67 -95 105 -68 77 -225 233 -292 291 -24 21 -56 50 -71
64 -15 14 -43 36 -61 49 -19 13 -36 27 -39 31 -6 7 -176 136 -210 159 -12 8
-28 21 -36 28 -7 6 -15 12 -18 12 -3 0 -50 29 -105 65 -55 35 -112 70 -128 77
-15 7 -30 15 -33 18 -22 23 -322 170 -455 223 -130 51 -255 97 -280 103 -11 2
-31 8 -45 12 -14 5 -41 14 -60 20 -42 13 -265 69 -300 76 -14 2 -36 7 -50 10
-27 6 -66 13 -120 21 -64 10 -85 13 -85 15 0 1 -30 5 -120 15 -179 20 -609 27
-783 12 -93 -7 -234 -24 -272 -32 -14 -3 -41 -7 -60 -10 -19 -2 -55 -8 -80
-14 -25 -5 -61 -13 -80 -16 -47 -9 -65 -13 -65 -15 0 -1 -9 -3 -20 -4 -11 -2
-58 -13 -105 -25 -47 -13 -89 -24 -95 -25 -5 -2 -37 -11 -70 -21 -33 -10 -61
-17 -62 -17 -2 0 -42 -15 -90 -34 -48 -19 -91 -34 -96 -34 -4 0 -27 -9 -49
-20 -23 -11 -48 -20 -55 -20 -7 0 -13 -5 -13 -10 0 -6 -3 -9 -7 -9 -26 4 -43
-4 -48 -22 -9 -29 -12 -89 -4 -89 3 0 3 -17 -1 -38 -4 -21 -3 -48 1 -60 5 -12
4 -24 -1 -27 -6 -3 -6 -15 0 -30 6 -15 6 -27 0 -30 -6 -3 -6 -15 0 -30 6 -15
6 -27 0 -30 -6 -4 -7 -13 -1 -23 6 -11 6 -24 0 -34 -5 -10 -5 -19 0 -22 4 -3
5 -23 1 -45 -4 -21 -3 -46 2 -54 5 -9 4 -18 -2 -22 -7 -4 -7 -12 0 -24 5 -10
7 -21 3 -25 -8 -8 -10 -76 -1 -76 4 0 3 -13 -2 -30 -5 -16 -5 -30 -1 -30 4 0
5 -22 1 -50 -3 -27 -3 -56 2 -64 5 -8 4 -17 -2 -21 -7 -4 -7 -12 0 -24 5 -10
7 -21 3 -25 -8 -8 -10 -76 -1 -76 4 0 3 -13 -2 -30 -5 -16 -5 -30 0 -30 4 0 4
-15 0 -34 -4 -19 -4 -40 1 -47 4 -7 5 -18 1 -23 -7 -12 -5 -116 2 -124 3 -2 1
-13 -4 -23 -7 -11 -7 -20 0 -24 6 -3 6 -15 0 -29 -5 -13 -6 -27 -3 -30 8 -7
10 -66 3 -66 -7 0 -4 -176 4 -195 3 -8 1 -15 -4 -15 -6 0 -6 -9 0 -25 5 -14 6
-25 2 -25 -4 0 -7 -18 -7 -40 0 -22 3 -40 7 -40 4 0 3 -11 -2 -25 -6 -15 -6
-27 0 -30 5 -3 6 -13 3 -22 -4 -9 22 8 58 38 57 49 202 154 254 186 121 73
296 166 335 178 8 3 42 17 88 36 23 10 42 15 42 12 0 -3 6 -1 13 5 6 5 32 16
57 23 25 7 50 14 55 16 59 18 250 64 285 68 25 3 59 7 75 10 85 13 119 16 215
21 58 3 110 6 115 6 27 0 244 -13 270 -17 17 -2 53 -6 80 -10 238 -30 518
-121 755 -243 93 -48 294 -173 346 -215 121 -98 165 -137 259 -232 61 -61 119
-122 130 -135 111 -142 186 -248 236 -336 9 -17 23 -42 31 -55 7 -13 19 -32
27 -41 8 -10 11 -18 7 -18 -4 0 4 -19 17 -42 30 -55 89 -194 117 -278 12 -36
24 -72 27 -80 3 -8 7 -24 9 -35 2 -11 12 -54 24 -95 11 -41 22 -88 24 -105 3
-16 7 -39 9 -50 5 -21 16 -97 23 -150 3 -27 16 -246 15 -270 0 -58 -18 -320
-21 -320 -1 0 -4 -16 -7 -35 -2 -19 -11 -64 -19 -100 -8 -36 -16 -77 -19 -91
-2 -15 -12 -53 -21 -85 -10 -33 -19 -61 -19 -64 -38 -141 -162 -421 -240 -538
-19 -30 -35 -56 -35 -59 0 -9 -125 -178 -184 -248 -60 -72 -294 -305 -306
-305 -4 0 -22 -14 -41 -31 -33 -29 -193 -142 -234 -165 -11 -6 -48 -28 -83
-48 -139 -79 -364 -175 -472 -201 -8 -2 -26 -8 -40 -13 -14 -5 -29 -10 -35
-11 -5 -1 -26 -6 -45 -11 -19 -5 -51 -12 -70 -15 -19 -3 -51 -10 -70 -15 -19
-5 -51 -10 -70 -11 -19 -2 -39 -5 -43 -7 -31 -15 -465 -22 -577 -9 -124 14
-156 19 -170 24 -8 3 -28 7 -45 10 -58 9 -221 52 -305 81 -91 31 -272 103
-280 112 -3 3 -18 12 -35 19 -71 35 -259 149 -306 186 -14 11 -38 29 -54 40
-91 65 -283 243 -373 347 -81 94 -232 307 -232 327 0 5 -4 11 -9 13 -13 5
-123 222 -168 333 -41 100 -111 328 -120 388 -9 61 -12 77 -17 85 -3 4 -7 30
-10 58 -3 27 -8 72 -11 99 -10 80 -16 234 -14 375 0 8 0 40 0 70 0 30 0 62 0
70 0 8 0 49 0 90 0 41 0 82 0 90 0 8 0 40 0 70 0 30 0 62 0 70 0 8 0 49 0 90
0 41 0 82 0 90 0 8 0 40 0 70 0 30 0 62 0 70 0 8 0 49 0 90 0 41 0 82 0 90 0
8 0 40 0 70 0 30 0 62 0 70 0 8 0 49 0 90 0 41 0 82 0 90 0 8 0 40 0 70 0 30
0 62 0 70 0 8 0 49 0 90 0 41 0 82 0 90 0 8 0 40 0 70 0 30 0 62 0 70 0 8 0
49 0 90 0 41 0 82 0 90 0 8 0 40 0 70 0 30 0 62 0 70 1 40 0 180 -2 215 0 22
-1 47 -1 55 4 76 2 293 -3 300 -3 5 -2 11 3 14 4 2 5 32 2 65 -3 34 -3 61 0
61 3 0 3 27 0 60 -3 33 -3 60 0 60 3 0 3 27 0 60 -3 33 -3 60 0 60 3 0 3 27 0
60 -3 33 -3 60 0 60 3 0 3 27 0 60 -3 33 -3 60 0 60 3 0 3 27 0 60 -3 33 -3
60 0 60 3 0 3 27 0 60 -3 33 -3 60 0 60 3 0 3 27 0 60 -3 33 -2 60 3 60 4 0 6
4 3 9 -5 7 -7 75 -5 151 0 8 -1 39 -1 68 l-2 52 -798 0 c-789 0 -798 0 -803
-20z"/>
</g>
</svg>
