<?xml version="1.0" standalone="no"?>
<!DOCTYPE svg PUBLIC "-//W3C//DTD SVG 20010904//EN"
 "http://www.w3.org/TR/2001/REC-SVG-20010904/DTD/svg10.dtd">
<svg version="1.0" xmlns="http://www.w3.org/2000/svg"
 width="256.000000pt" height="256.000000pt" viewBox="0 0 256.000000 256.000000"
 preserveAspectRatio="xMidYMid meet">
<metadata>
Created by potrace 1.14, written by Peter Selinger 2001-2017
</metadata>
<g transform="translate(0.000000,256.000000) scale(0.100000,-0.100000)"
fill="#000000" stroke="none">
<path d="M1157 2514 c-2 -2 -24 -7 -48 -10 -24 -3 -72 -12 -107 -21 -35 -8
-68 -16 -75 -17 -7 -1 -16 -4 -22 -7 -5 -4 -28 -12 -50 -19 -80 -25 -276 -131
-315 -170 -3 -3 -27 -23 -54 -44 -62 -50 -85 -74 -153 -155 -74 -88 -83 -100
-83 -106 0 -3 -15 -28 -33 -57 -18 -29 -38 -64 -44 -78 -33 -69 -63 -144 -78
-196 -17 -59 -20 -70 -31 -134 -4 -19 -9 -44 -11 -55 -13 -51 -10 -279 4 -352
52 -279 172 -514 354 -690 83 -80 108 -100 194 -157 144 -94 300 -157 460
-183 17 -3 50 -9 75 -13 48 -9 285 -6 310 3 8 3 29 8 45 11 208 31 451 150
614 301 36 33 73 69 82 80 9 11 27 31 39 45 74 83 179 266 210 365 7 22 16 45
20 50 5 6 8 12 8 15 -1 3 6 39 15 80 9 41 19 89 23 105 13 64 12 282 -3 356
-8 41 -16 83 -18 94 -17 96 -84 263 -141 353 -19 29 -34 55 -34 58 0 3 -6 12
-12 19 -7 8 -40 47 -72 87 -65 80 -159 166 -251 230 -66 46 -225 128 -247 128
-8 0 -18 4 -24 8 -10 9 -132 43 -224 63 -53 11 -314 22 -323 13z"/>
</g>
</svg>
